<svg width="153" height="163" viewBox="0 0 153 163" fill="none" xmlns="http://www.w3.org/2000/svg">
<path d="M88.2417 120.626C82.6477 127.309 75.8508 132.087 67.6531 134.636C49.6868 140.221 33.2666 137.223 18.9797 124.833C10.8984 117.824 6.02585 108.676 3.26713 98.3718C1.36631 91.2726 0.585469 84.01 0.875034 76.7302C1.7344 55.1548 10.3634 37.0438 26.0382 22.2712C36.4542 12.455 48.6474 5.88339 62.6196 2.7193C69.4892 1.16351 76.4421 0.703156 83.5061 1.01333C96.2288 1.57185 107.972 5.08587 118.761 11.8273C119.421 12.2395 120.135 12.5983 120.79 13.4857C118.519 12.8653 116.513 12.2032 114.425 11.8356C106.104 10.3692 97.8513 10.6229 89.6188 12.4982C78.0245 15.1391 67.3856 19.8413 58.019 27.2129C48.2994 34.8623 40.8041 44.2255 36.4012 55.9076C33.2538 64.2588 32.2045 72.931 33.0894 81.7327C34.1122 91.9097 38.1705 100.941 44.6769 108.855C50.0412 115.38 56.5682 120.295 64.7428 122.628C72.2577 124.774 79.7329 124.816 86.84 120.907C87.1894 120.714 87.5271 120.382 88.2417 120.626Z" fill="#008FA8"/>
<path d="M22.3809 138.071C24.4981 139.009 26.291 140.452 28.3032 141.54C44.5007 150.302 60.9691 150.881 77.7128 143.251C92.0929 136.698 102.772 126.104 110.939 112.756C113.915 107.891 116.447 102.757 119.796 98.1206C122.9 93.8247 126.794 90.7171 132.157 89.6712C139.749 88.191 147.312 92.1953 150.344 99.3809C153.199 106.15 152.385 112.844 149.678 119.369C145.071 130.469 137.473 139.256 127.957 146.432C117.224 154.526 105.122 159.516 91.9201 161.827C83.9753 163.218 76.0053 163.273 68.0021 162.055C54.9707 160.071 43.1181 155.257 32.4165 147.601C28.6409 144.899 25.4679 141.535 22.3809 138.071Z" fill="#008FA8"/>
<path d="M68.3535 37.4134C70.7677 34.1251 73.9431 31.6781 77.2922 29.47C85.9326 23.775 95.2673 19.618 105.498 17.8934C113.098 16.6124 120.681 16.8033 127.748 20.5274C134.012 23.8284 138.405 28.7741 139.712 35.8218C141.725 46.6794 134.089 56.3753 123.315 55.9479C118.57 55.7594 114.728 53.5857 111.652 50.0261C108.51 46.3888 105.448 42.6903 101.412 39.9448C94.4929 35.2387 86.868 33.7256 78.6463 34.6262C75.254 34.9977 72.0678 36.0176 68.9812 37.4129C68.7854 37.5017 68.6068 37.6038 68.3535 37.4134Z" fill="#008FA8"/>
</svg>
