<?xml version="1.0" encoding="UTF-8"?>
<svg id="_x32_" xmlns="http://www.w3.org/2000/svg" version="1.1" xmlns:xlink="http://www.w3.org/1999/xlink" viewBox="0 0 800 800">
  <!-- Generator: Adobe Illustrator 29.2.1, SVG Export Plug-In . SVG Version: 2.1.0 Build 116)  -->
  <defs>
    <style>
      .st0 {
        fill: url(#linear-gradient4);
        stroke: url(#linear-gradient5);
      }

      .st0, .st1, .st2, .st3, .st4, .st5 {
        stroke-miterlimit: 10;
      }

      .st1 {
        fill: url(#linear-gradient6);
        stroke: url(#linear-gradient7);
      }

      .st2 {
        fill: url(#linear-gradient8);
        stroke: url(#linear-gradient9);
      }

      .st3 {
        fill: url(#linear-gradient2);
        stroke: url(#linear-gradient3);
      }

      .st4 {
        fill: url(#linear-gradient);
        stroke: url(#linear-gradient1);
      }

      .st5 {
        fill: url(#linear-gradient10);
        stroke: url(#linear-gradient11);
      }
    </style>
    <linearGradient id="linear-gradient" x1="158.2" y1="243.2" x2="231" y2="243.2" gradientUnits="userSpaceOnUse">
      <stop offset=".2" stop-color="#ffebca"/>
      <stop offset=".4" stop-color="#d8840b"/>
    </linearGradient>
    <linearGradient id="linear-gradient1" x1="157.7" y1="243.2" x2="231.5" y2="243.2" gradientUnits="userSpaceOnUse">
      <stop offset="0" stop-color="#fff"/>
      <stop offset="1" stop-color="#d8840b"/>
    </linearGradient>
    <linearGradient id="linear-gradient2" x1="0" y1="330.5" x2="72.9" y2="330.5" xlink:href="#linear-gradient"/>
    <linearGradient id="linear-gradient3" x1="-.5" y1="330.5" x2="73.4" y2="330.5" xlink:href="#linear-gradient1"/>
    <linearGradient id="linear-gradient4" x1="569" x2="641.9" xlink:href="#linear-gradient"/>
    <linearGradient id="linear-gradient5" x1="568.5" x2="642.4" xlink:href="#linear-gradient1"/>
    <linearGradient id="linear-gradient6" x1="727.1" y1="330.5" x2="800" y2="330.5" xlink:href="#linear-gradient"/>
    <linearGradient id="linear-gradient7" x1="726.6" y1="330.5" x2="800.5" y2="330.5" xlink:href="#linear-gradient1"/>
    <linearGradient id="linear-gradient8" x1="125.2" y1="652.2" x2="674.9" y2="652.2" xlink:href="#linear-gradient"/>
    <linearGradient id="linear-gradient9" x1="124.7" y1="652.2" x2="675.4" y2="652.2" xlink:href="#linear-gradient1"/>
    <linearGradient id="linear-gradient10" x1="45.5" y1="352.5" x2="754.5" y2="352.5" xlink:href="#linear-gradient"/>
    <linearGradient id="linear-gradient11" x1="44.9" y1="352.5" x2="755.1" y2="352.5" xlink:href="#linear-gradient1"/>
  </defs>
  <g id="SVGRepo_iconCarrier">
    <g>
      <path class="st4" d="M194.6,279.7c20.1,0,36.5-16.3,36.5-36.4s-16.3-36.4-36.5-36.4-36.4,16.3-36.4,36.4,16.3,36.4,36.4,36.4Z"/>
      <path class="st3" d="M72.9,330.5c0-20.1-16.3-36.4-36.5-36.4S0,310.4,0,330.5s16.3,36.4,36.5,36.4,36.5-16.3,36.5-36.4Z"/>
      <path class="st0" d="M605.4,279.7c20.1,0,36.5-16.3,36.5-36.4s-16.3-36.4-36.5-36.4-36.4,16.3-36.4,36.4,16.3,36.4,36.4,36.4Z"/>
      <path class="st1" d="M763.6,294c-20.1,0-36.5,16.3-36.5,36.4s16.3,36.4,36.5,36.4,36.4-16.3,36.4-36.4-16.3-36.4-36.4-36.4Z"/>
      <rect class="st2" x="125.2" y="623.8" width="549.7" height="56.7"/>
      <path class="st5" d="M625.3,426.6c-53-36.4-23.2-129.2-23.2-129.2l-30.3-8.8c-63.6,120.9-157.2,115.3-149.9-19.9v-43.3h52.6v-43.8h-52.6v-62h-43.8v62h-52.7v43.8h52.7v43.3c7.3,135.1-86.2,140.8-149.9,19.9l-30.3,8.8s29.8,92.8-23.2,129.2c-53,36.4-99.4-53-99.4-53l-29.8,13.2,82.8,198.8h543.3l82.8-198.8-29.8-13.2s-46.4,89.4-99.4,53ZM267,501.7c-14.5,0-26.2-11.7-26.2-26.2s11.7-26.2,26.2-26.2,26.2,11.7,26.2,26.2c0,14.5-11.7,26.2-26.2,26.2ZM400,488.6c-14.5,0-26.2-11.7-26.2-26.2s11.7-26.2,26.2-26.2,26.2,11.7,26.2,26.2c0,14.5-11.7,26.2-26.2,26.2ZM533.1,501.7c-14.5,0-26.2-11.7-26.2-26.2s11.7-26.2,26.2-26.2,26.2,11.7,26.2,26.2c0,14.5-11.7,26.2-26.2,26.2Z"/>
    </g>
  </g>
</svg>