<svg width="153" height="163" viewBox="0 0 153 163" fill="none" xmlns="http://www.w3.org/2000/svg">
<path d="M88.1987 120.626C82.6047 127.309 75.8078 132.087 67.6102 134.636C49.6439 140.221 33.2236 137.223 18.9367 124.833C10.8554 117.824 5.98288 108.676 3.22417 98.3718C1.32334 91.2726 0.5425 84.01 0.832065 76.7302C1.69143 55.1548 10.3205 37.0438 25.9953 22.2712C36.4113 12.455 48.6044 5.88339 62.5766 2.7193C69.4462 1.16351 76.3992 0.703156 83.4631 1.01333C96.1858 1.57185 107.929 5.08587 118.718 11.8273C119.378 12.2395 120.092 12.5983 120.747 13.4857C118.476 12.8653 116.47 12.2032 114.382 11.8356C106.061 10.3692 97.8083 10.6229 89.5759 12.4982C77.9815 15.1391 67.3427 19.8413 57.976 27.2129C48.2564 34.8623 40.7611 44.2255 36.3582 55.9076C33.2108 64.2588 32.1615 72.931 33.0464 81.7327C34.0692 91.9097 38.1275 100.941 44.6339 108.855C49.9982 115.38 56.5252 120.295 64.6998 122.628C72.2147 124.774 79.6899 124.816 86.797 120.907C87.1465 120.714 87.4841 120.382 88.1987 120.626Z" fill="#C1C13D"/>
<path d="M22.3398 138.071C24.4571 139.009 26.25 140.452 28.2622 141.54C44.4597 150.302 60.9281 150.881 77.6718 143.251C92.0519 136.698 102.731 126.104 110.898 112.756C113.874 107.891 116.406 102.757 119.755 98.1206C122.859 93.8247 126.753 90.7171 132.116 89.6712C139.708 88.191 147.271 92.1953 150.303 99.3809C153.158 106.15 152.344 112.844 149.637 119.369C145.03 130.469 137.432 139.256 127.916 146.432C117.183 154.526 105.081 159.516 91.8791 161.827C83.9342 163.218 75.9643 163.273 67.961 162.055C54.9296 160.071 43.0771 155.257 32.3755 147.601C28.5998 144.899 25.4269 141.535 22.3398 138.071Z" fill="#C1C13D"/>
<path d="M68.3125 37.4134C70.7267 34.1251 73.9021 31.6781 77.2512 29.47C85.8915 23.775 95.2263 19.618 105.457 17.8934C113.057 16.6124 120.64 16.8033 127.707 20.5274C133.971 23.8284 138.364 28.7741 139.671 35.8218C141.684 46.6794 134.048 56.3753 123.274 55.9479C118.529 55.7594 114.687 53.5857 111.611 50.0261C108.469 46.3888 105.407 42.6903 101.371 39.9448C94.4519 35.2387 86.827 33.7256 78.6053 34.6262C75.213 34.9977 72.0268 36.0176 68.9402 37.4129C68.7444 37.5017 68.5657 37.6038 68.3125 37.4134Z" fill="#C1C13D"/>
</svg>
