<svg width="152" height="163" viewBox="0 0 152 163" fill="none" xmlns="http://www.w3.org/2000/svg">
<path d="M87.8472 120.626C82.2532 127.309 75.4562 132.087 67.2586 134.636C49.2923 140.221 32.872 137.223 18.5852 124.833C10.5039 117.824 5.63132 108.676 2.8726 98.3718C0.971781 91.2726 0.190937 84.01 0.480502 76.7302C1.33987 55.1548 9.96891 37.0438 25.6437 22.2712C36.0597 12.455 48.2528 5.88339 62.2251 2.7193C69.0946 1.16351 76.0476 0.703156 83.1115 1.01333C95.8342 1.57185 107.578 5.08587 118.366 11.8273C119.026 12.2395 119.741 12.5983 120.395 13.4857C118.125 12.8653 116.119 12.2032 114.031 11.8356C105.709 10.3692 97.4568 10.6229 89.2243 12.4982C77.6299 15.1391 66.9911 19.8413 57.6244 27.2129C47.9049 34.8623 40.4095 44.2255 36.0067 55.9076C32.8593 64.2588 31.81 72.931 32.6948 81.7327C33.7177 91.9097 37.776 100.941 44.2824 108.855C49.6467 115.38 56.1737 120.295 64.3482 122.628C71.8632 124.774 79.3383 124.816 86.4454 120.907C86.7949 120.714 87.1326 120.382 87.8472 120.626Z" fill="#6AA800"/>
<path d="M21.9883 138.071C24.1055 139.009 25.8984 140.452 27.9106 141.54C44.1081 150.302 60.5765 150.881 77.3202 143.251C91.7003 136.698 102.379 126.104 110.547 112.756C113.523 107.891 116.054 102.757 119.404 98.1206C122.508 93.8247 126.401 90.7171 131.765 89.6712C139.356 88.191 146.919 92.1953 149.951 99.3809C152.807 106.15 151.993 112.844 149.285 119.369C144.678 130.469 137.081 139.256 127.565 146.432C116.832 154.526 104.73 159.516 91.5275 161.827C83.5827 163.218 75.6128 163.273 67.6095 162.055C54.5781 160.071 42.7255 155.257 32.0239 147.601C28.2483 144.899 25.0753 141.535 21.9883 138.071Z" fill="#6AA800"/>
<path d="M67.9609 37.4134C70.3751 34.1251 73.5505 31.6781 76.8997 29.47C85.54 23.775 94.8748 19.618 105.106 17.8934C112.705 16.6124 120.289 16.8033 127.356 20.5274C133.62 23.8284 138.012 28.7741 139.319 35.8218C141.332 46.6794 133.696 56.3753 122.923 55.9479C118.177 55.7594 114.335 53.5857 111.26 50.0261C108.117 46.3888 105.055 42.6903 101.019 39.9448C94.1003 35.2387 86.4754 33.7256 78.2537 34.6262C74.8614 34.9977 71.6752 36.0176 68.5887 37.4129C68.3928 37.5017 68.2142 37.6038 67.9609 37.4134Z" fill="#6AA800"/>
</svg>
