<svg width="152" height="163" viewBox="0 0 152 163" fill="none" xmlns="http://www.w3.org/2000/svg">
<path d="M87.8921 120.626C82.2981 127.309 75.5011 132.087 67.3035 134.636C49.3372 140.221 32.9169 137.223 18.6301 124.833C10.5488 117.824 5.67624 108.676 2.91753 98.3718C1.0167 91.2726 0.235859 84.01 0.525424 76.7302C1.38479 55.1548 10.0138 37.0438 25.6886 22.2712C36.1046 12.455 48.2977 5.88339 62.27 2.7193C69.1395 1.16351 76.0925 0.703156 83.1564 1.01333C95.8792 1.57185 107.623 5.08587 118.411 11.8273C119.071 12.2395 119.785 12.5983 120.44 13.4857C118.17 12.8653 116.163 12.2032 114.076 11.8356C105.754 10.3692 97.5017 10.6229 89.2692 12.4982C77.6749 15.1391 67.036 19.8413 57.6693 27.2129C47.9498 34.8623 40.4545 44.2255 36.0516 55.9076C32.9042 64.2588 31.8549 72.931 32.7398 81.7327C33.7626 91.9097 37.8209 100.941 44.3273 108.855C49.6916 115.38 56.2186 120.295 64.3931 122.628C71.9081 124.774 79.3833 124.816 86.4904 120.907C86.8398 120.714 87.1775 120.382 87.8921 120.626Z" fill="#F28A8A"/>
<path d="M22.0312 138.071C24.1485 139.009 25.9414 140.452 27.9536 141.54C44.1511 150.302 60.6195 150.881 77.3632 143.251C91.7433 136.698 102.422 126.104 110.59 112.756C113.566 107.891 116.097 102.757 119.447 98.1206C122.551 93.8247 126.444 90.7171 131.808 89.6712C139.399 88.191 146.962 92.1953 149.994 99.3809C152.85 106.15 152.036 112.844 149.328 119.369C144.721 130.469 137.123 139.256 127.608 146.432C116.875 154.526 104.773 159.516 91.5705 161.827C83.6256 163.218 75.6557 163.273 67.6525 162.055C54.621 160.071 42.7685 155.257 32.0669 147.601C28.2913 144.899 25.1183 141.535 22.0312 138.071Z" fill="#F28A8A"/>
<path d="M68.0039 37.4134C70.4181 34.1251 73.5935 31.6781 76.9426 29.47C85.583 23.775 94.9177 19.618 105.149 17.8934C112.748 16.6124 120.332 16.8033 127.399 20.5274C133.662 23.8284 138.055 28.7741 139.362 35.8218C141.375 46.6794 133.739 56.3753 122.966 55.9479C118.22 55.7594 114.378 53.5857 111.303 50.0261C108.16 46.3888 105.098 42.6903 101.062 39.9448C94.1433 35.2387 86.5184 33.7256 78.2967 34.6262C74.9044 34.9977 71.7182 36.0176 68.6316 37.4129C68.4358 37.5017 68.2572 37.6038 68.0039 37.4134Z" fill="#F28A8A"/>
</svg>
